<svg xmlns="http://www.w3.org/2000/svg" style="display: none">
  <symbol id="pdl-download" viewBox="0 0 512 512">
    <path
      d="M256 8C119 8 8 119 8 256s111 248 248 248 248-111 248-248S393 8 256 8zm0 448c-110.5 0-200-89.5-200-200S145.5 56 256 56s200 89.5 200 200-89.5 200-200 200zm-32-316v116h-67c-10.7 0-16 12.9-8.5 20.5l99 99c4.7 4.7 12.3 4.7 17 0l99-99c7.6-7.6 2.2-20.5-8.5-20.5h-67V140c0-6.6-5.4-12-12-12h-40c-6.6 0-12 5.4-12 12z"
    ></path>
  </symbol>

  <symbol id="pdl-loading" viewBox="0 0 512 512">
    <style>
      @keyframes pdl-loading {
        0% {
          transform: rotate3d(0, 0, 1, -90deg) rotate3d(1, 0, 0, 0deg);
          stroke-dashoffset: 1407.43;
        }

        49.99% {
          transform: rotate3d(0, 0, 1, 90deg) rotate3d(1, 0, 0, 0deg);
        }

        50% {
          transform: rotate3d(0, 0, 1, 90deg) rotate3d(1, 0, 0, 180deg);
          stroke-dashoffset: 0;
        }

        100% {
          transform: rotate3d(0, 0, 1, 270deg) rotate3d(1, 0, 0, 180deg);
          stroke-dashoffset: 1407.43;
        }
      }

      circle.rotate {
        transform-origin: 50% 50%;
        animation: 2.5s infinite ease-in-out pdl-loading;
      }
    </style>
    <circle
      class="rotate"
      cx="256"
      cy="256"
      r="224"
      stroke-width="48"
      fill="none"
      stroke-dasharray="1407.43"
      stroke-dashoffset="1055.57"
      stroke-linecap="round"
    ></circle>
  </symbol>

  <symbol id="pdl-progress" viewBox="0 0 512 512">
    <style>
      circle.progress {
        transition: stroke-dashoffset 0.2s ease;
      }
    </style>
    <circle
      class="progress"
      cx="256"
      cy="256"
      r="224"
      stroke-width="48"
      fill="none"
      stroke-dasharray="1407.43"
      stroke-linecap="round"
      transform="rotate(-90 256 256)"
    ></circle>
  </symbol>

  <symbol id="pdl-error" viewBox="0 0 512 512">
    <path
      d="M256 8C119 8 8 119 8 256s111 248 248 248 248-111 248-248S393 8 256 8zm0 448c-110.5 0-200-89.5-200-200S145.5 56 256 56s200 89.5 200 200-89.5 200-200 200zm101.8-262.2L295.6 256l62.2 62.2c4.7 4.7 4.7 12.3 0 17l-22.6 22.6c-4.7 4.7-12.3 4.7-17 0L256 295.6l-62.2 62.2c-4.7 4.7-12.3 4.7-17 0l-22.6-22.6c-4.7-4.7-4.7-12.3 0-17l62.2-62.2-62.2-62.2c-4.7-4.7-4.7-12.3 0-17l22.6-22.6c4.7-4.7 12.3-4.7 17 0l62.2 62.2 62.2-62.2c4.7-4.7 12.3-4.7 17 0l22.6 22.6c4.7 4.7 4.7 12.3 0 17z"
    ></path>
  </symbol>

  <symbol id="pdl-complete" viewBox="0 0 512 512">
    <path
      d="M256 8C119.033 8 8 119.033 8 256s111.033 248 248 248 248-111.033 248-248S392.967 8 256 8zm0 48c110.532 0 200 89.451 200 200 0 110.532-89.451 200-200 200-110.532 0-200-89.451-200-200 0-110.532 89.451-200 200-200m140.204 130.267l-22.536-22.718c-4.667-4.705-12.265-4.736-16.97-.068L215.346 303.697l-59.792-60.277c-4.667-4.705-12.265-4.736-16.97-.069l-22.719 22.536c-4.705 4.667-4.736 12.265-.068 16.971l90.781 91.516c4.667 4.705 12.265 4.736 16.97.068l172.589-171.204c4.704-4.668 4.734-12.266.067-16.971z"
    ></path>
  </symbol>
</svg>
